<svg xmlns="http://www.w3.org/2000/svg" width="103.264" height="54.502" viewBox="0 0 103.264 54.502">
  <g id="logo" transform="translate(-0.735 -11.1)">
    <g id="Group_1" data-name="Group 1" transform="translate(-944 -608)">
      <path id="Path_4" data-name="Path 4" d="M13.055-5.075V0H10.01A7.454,7.454,0,0,1,4.935-1.593q-1.82-1.592-1.82-5.2v-7.77H.735v-4.97h2.38v-4.76H9.1v4.76h3.92v4.97H9.1v7.84a1.64,1.64,0,0,0,.42,1.26,2.05,2.05,0,0,0,1.4.385ZM34.79-10.08a15.279,15.279,0,0,1-.1,1.75H21.14a4.07,4.07,0,0,0,1.173,2.782,3.582,3.582,0,0,0,2.538.962,3.145,3.145,0,0,0,3.115-1.89h6.37A8.741,8.741,0,0,1,32.568-3.01,8.849,8.849,0,0,1,29.365-.6,10.287,10.287,0,0,1,25.06.28,10.475,10.475,0,0,1,19.95-.945a8.713,8.713,0,0,1-3.5-3.5,10.805,10.805,0,0,1-1.26-5.32,10.928,10.928,0,0,1,1.243-5.32,8.6,8.6,0,0,1,3.483-3.5A10.549,10.549,0,0,1,25.06-19.81a10.444,10.444,0,0,1,5.04,1.19,8.545,8.545,0,0,1,3.447,3.395A10.3,10.3,0,0,1,34.79-10.08Zm-6.125-1.575a3.077,3.077,0,0,0-1.05-2.45,3.865,3.865,0,0,0-2.625-.91,3.791,3.791,0,0,0-2.538.875,3.886,3.886,0,0,0-1.277,2.485ZM36.75-9.8a11.672,11.672,0,0,1,1.138-5.285,8.485,8.485,0,0,1,3.1-3.5A8.087,8.087,0,0,1,45.36-19.81a7.516,7.516,0,0,1,3.623.84,6.188,6.188,0,0,1,2.4,2.2V-19.53h5.985V0H51.38V-2.765A6.463,6.463,0,0,1,48.948-.56a7.516,7.516,0,0,1-3.623.84,7.941,7.941,0,0,1-4.34-1.243,8.586,8.586,0,0,1-3.1-3.535A11.783,11.783,0,0,1,36.75-9.8Zm14.63.035A4.893,4.893,0,0,0,50.138-13.3a4.037,4.037,0,0,0-3.028-1.3,4.063,4.063,0,0,0-3.028,1.278A4.831,4.831,0,0,0,42.84-9.8a4.956,4.956,0,0,0,1.243,3.552A4.011,4.011,0,0,0,47.11-4.935a4.037,4.037,0,0,0,3.028-1.3A4.893,4.893,0,0,0,51.38-9.765Zm9.135,0a10.928,10.928,0,0,1,1.243-5.32,8.63,8.63,0,0,1,3.465-3.5,10.375,10.375,0,0,1,5.092-1.225,9.683,9.683,0,0,1,6.143,1.925,9.082,9.082,0,0,1,3.237,5.425h-6.37A3.066,3.066,0,0,0,70.21-14.7a3.14,3.14,0,0,0-2.625,1.278,5.91,5.91,0,0,0-.98,3.658,5.91,5.91,0,0,0,.98,3.658A3.14,3.14,0,0,0,70.21-4.83a3.066,3.066,0,0,0,3.115-2.24h6.37A9.169,9.169,0,0,1,76.44-1.68,9.584,9.584,0,0,1,70.315.28,10.375,10.375,0,0,1,65.223-.945a8.63,8.63,0,0,1-3.465-3.5A10.928,10.928,0,0,1,60.515-9.765Zm34.37-9.975a6.948,6.948,0,0,1,5.39,2.222,8.716,8.716,0,0,1,2.03,6.108V0h-5.95V-10.605A4.286,4.286,0,0,0,95.34-13.65a3.559,3.559,0,0,0-2.73-1.085,3.559,3.559,0,0,0-2.73,1.085,4.286,4.286,0,0,0-1.015,3.045V0H82.88V-25.9h5.985v8.995A6.4,6.4,0,0,1,91.35-18.97,7.942,7.942,0,0,1,94.885-19.74Z" transform="translate(944 645)" fill="#f7b600"/>
      <path id="Path_5" data-name="Path 5" d="M27.09-19.74a7.724,7.724,0,0,1,5.792,2.2,8.4,8.4,0,0,1,2.153,6.125V0h-5.95V-10.605a4.035,4.035,0,0,0-1-2.923A3.642,3.642,0,0,0,25.34-14.56a3.642,3.642,0,0,0-2.748,1.032,4.035,4.035,0,0,0-1,2.923V0h-5.95V-10.605a4.035,4.035,0,0,0-1-2.923A3.642,3.642,0,0,0,11.9-14.56a3.642,3.642,0,0,0-2.748,1.032,4.035,4.035,0,0,0-1,2.923V0H2.17V-19.53H8.155v2.45a6.406,6.406,0,0,1,2.38-1.942,7.483,7.483,0,0,1,3.325-.717A8.088,8.088,0,0,1,17.8-18.8,6.775,6.775,0,0,1,20.51-16.1a7.867,7.867,0,0,1,2.765-2.625A7.471,7.471,0,0,1,27.09-19.74Zm30.555,9.66a15.279,15.279,0,0,1-.1,1.75H43.995a4.07,4.07,0,0,0,1.173,2.782,3.582,3.582,0,0,0,2.537.962,3.145,3.145,0,0,0,3.115-1.89h6.37A8.741,8.741,0,0,1,55.423-3.01,8.849,8.849,0,0,1,52.22-.6,10.287,10.287,0,0,1,47.915.28a10.475,10.475,0,0,1-5.11-1.225,8.713,8.713,0,0,1-3.5-3.5,10.805,10.805,0,0,1-1.26-5.32,10.928,10.928,0,0,1,1.243-5.32,8.6,8.6,0,0,1,3.482-3.5,10.549,10.549,0,0,1,5.145-1.225,10.444,10.444,0,0,1,5.04,1.19A8.545,8.545,0,0,1,56.4-15.225,10.3,10.3,0,0,1,57.645-10.08ZM51.52-11.655a3.077,3.077,0,0,0-1.05-2.45,3.865,3.865,0,0,0-2.625-.91,3.791,3.791,0,0,0-2.538.875,3.886,3.886,0,0,0-1.278,2.485Z" transform="translate(944 670)" fill="#ff4723"/>
    </g>
    <g id="Group_2" data-name="Group 2" transform="translate(63.087 -2.594)">
      <path id="Path_1" data-name="Path 1" d="M40.114,49.331l-19.258-6.8a1.2,1.2,0,0,0-.8,0L.8,49.331a1.2,1.2,0,0,0,0,2.26l19.258,6.846a1.2,1.2,0,0,0,.8,0l19.258-6.846a1.2,1.2,0,0,0,0-2.26Z" fill="#0c2e60"/>
      <path id="Path_2" data-name="Path 2" d="M434.895,207.065v-9.331l-2.69.761v8.57a1.957,1.957,0,0,0,0,3.725v5.257a1.381,1.381,0,0,0,2.69,0V210.79a1.957,1.957,0,0,0,0-3.726Z" transform="translate(-396.714 -148.919)" fill="#0c2e60"/>
      <path id="Path_3" data-name="Path 3" d="M117.475,226.469a3.587,3.587,0,0,1-1.2-.208l-10.826-3.849v5.275c0,1.29,1.346,2.382,4,3.243a28.257,28.257,0,0,0,16.059,0c2.655-.862,4-1.953,4-3.243v-5.275l-10.826,3.849A3.587,3.587,0,0,1,117.475,226.469Z" transform="translate(-97.018 -165.565)" fill="#0c2e60"/>
    </g>
  </g>
</svg>
